# xmcd
#
# Track frame offsets: 
#        150
#        18876
#        34877
#        49449
#        82925
#        102112
#        113623
#        124430
#        151347
#        171417
#        192360
#        208854
#
# Disc length: 3123 seconds
#
# Revision: 2
# Processed by: cddbd v1.5.2PL0 Copyright (c) Steve Scherf et al.
# Submitted via: ExactAudioCopy v1.0b1
#
DISCID=a00c310c
DTITLE=David Rotundo - Blowin' For Broke
DYEAR=2001
DGENRE=Blues
TTITLE0=Make Up Your Mind
TTITLE1=I'm Waiting
TTITLE2=My Leg Is Shakin'
TTITLE3=Buorbon St. Blues
TTITLE4=I'm Into It
TTITLE5=P.T. Shuffle
TTITLE6=Butt Bustin' Boogie
TTITLE7=Punching Bag Man
TTITLE8=Working Class Blues
TTITLE9=Astro Van Blues
TTITLE10=My Leg Is Shakin (take two)
TTITLE11=Devil in a Dress
EXTD=
EXTT0=
EXTT1=
EXTT2=
EXTT3=
EXTT4=
EXTT5=
EXTT6=
EXTT7=
EXTT8=
EXTT9=
EXTT10=
EXTT11=
PLAYORDER=
